<?xml version="1.0" encoding="UTF-8" standalone="no"?><!DOCTYPE svg PUBLIC "-//W3C//DTD SVG 1.1//EN" "http://www.w3.org/Graphics/SVG/1.1/DTD/svg11.dtd"><svg width="100%" height="100%" viewBox="0 0 142 142" version="1.1" xmlns="http://www.w3.org/2000/svg" xmlns:xlink="http://www.w3.org/1999/xlink" xml:space="preserve" xmlns:serif="http://www.serif.com/" style="fill-rule:evenodd;clip-rule:evenodd;stroke-linecap:round;stroke-linejoin:round;stroke-miterlimit:1.5;"><path d="M22.901,18.51c42.966,-35.808 96.932,-41.983 120.436,-13.78c23.505,28.203 7.705,80.172 -35.261,115.981c-42.966,35.808 -96.932,41.983 -120.436,13.78c-23.505,-28.203 -7.705,-80.172 35.261,-115.981Z" style="fill:#ede5e8;"/><path d="M55.433,80.176l29.4,46.665" style="fill:none;stroke:#afafaf;stroke-width:1.35px;stroke-dasharray:2.694,4.041,0,0,0,0;"/><path d="M106.845,90.609l10.104,16.038" style="fill:none;stroke:#afafaf;stroke-width:1.35px;stroke-dasharray:2.694,4.041,0,0,0,0;"/><g><path d="M28.704,130.366l41.275,-23.718" style="fill:none;"/><path d="M29.449,127.607l-1.49,5.517" style="fill:none;stroke:#696969;stroke-width:1.35px;stroke-linejoin:miter;stroke-miterlimit:10;"/><path d="M70.724,103.889l-1.49,5.517" style="fill:none;stroke:#696969;stroke-width:1.35px;stroke-linejoin:miter;stroke-miterlimit:10;"/><path d="M28.704,130.366l41.275,-23.718" style="fill:none;stroke:#696969;stroke-width:1.35px;"/></g><g><path d="M83.179,126.841l35.141,-20.193" style="fill:none;"/><path d="M83.925,124.082l-1.49,5.517" style="fill:none;stroke:#696969;stroke-width:1.35px;stroke-linejoin:miter;stroke-miterlimit:10;"/><path d="M119.066,103.889l-1.49,5.517" style="fill:none;stroke:#696969;stroke-width:1.35px;stroke-linejoin:miter;stroke-miterlimit:10;"/><path d="M83.179,126.841l35.141,-20.193" style="fill:none;stroke:#696969;stroke-width:1.35px;"/></g><path d="M10.957,102.197l17.747,28.169" style="fill:none;stroke:#afafaf;stroke-width:1.35px;stroke-dasharray:2.694,4.041,0,0,0,0;"/><g id="Layer1"><path id="ellipse434" d="M3.246,96.787c1.394,-2.407 4.487,-3.233 6.901,-1.843c2.415,1.39 3.243,4.472 1.849,6.879c-1.394,2.407 -4.487,3.233 -6.901,1.843c-2.415,-1.39 -3.243,-4.472 -1.849,-6.879Z" style="fill:#ff7f7f;stroke:#ff7f7f;stroke-width:0.84px;stroke-linecap:butt;stroke-linejoin:miter;stroke-miterlimit:4;"/><path id="ellipse4341" serif:id="ellipse434" d="M3.246,96.787c1.394,-2.407 4.487,-3.233 6.901,-1.843c2.415,1.39 3.243,4.472 1.849,6.879c-1.394,2.407 -4.487,3.233 -6.901,1.843c-2.415,-1.39 -3.243,-4.472 -1.849,-6.879Z" style="fill:#ff7f7f;stroke:#ff7f7f;stroke-width:0.84px;stroke-linecap:butt;stroke-linejoin:miter;stroke-miterlimit:4;"/><path d="M7.648,99.97l29.952,0c4.503,-1.439 9.867,-5.213 11.648,-9.503c2.299,-5.537 0.264,-11.93 -0.122,-15.269c-0.563,-4.875 -9.19,-9.542 -15.695,-10.769l-25.923,0.328l0,63.851" style="fill:none;stroke:#ff8484;stroke-width:5px;"/><path id="ellipse4342" serif:id="ellipse434" d="M3.806,62.789c1.394,-2.407 4.487,-3.233 6.901,-1.843c2.415,1.39 3.243,4.472 1.849,6.879c-1.394,2.407 -4.487,3.233 -6.901,1.843c-2.415,-1.39 -3.243,-4.472 -1.849,-6.879Z" style="fill:#ff7f7f;stroke:#ff7f7f;stroke-width:0.84px;stroke-linecap:butt;stroke-linejoin:miter;stroke-miterlimit:4;"/><path id="ellipse4343" serif:id="ellipse434" d="M44.873,72.516c1.394,-2.407 4.487,-3.233 6.901,-1.843c2.415,1.39 3.243,4.472 1.849,6.879c-1.394,2.407 -4.487,3.233 -6.901,1.843c-2.415,-1.39 -3.243,-4.472 -1.849,-6.879Z" style="fill:#ff7f7f;stroke:#ff7f7f;stroke-width:0.84px;stroke-linecap:butt;stroke-linejoin:miter;stroke-miterlimit:4;"/><path id="ellipse4344" serif:id="ellipse434" d="M33.347,97.288c1.394,-2.407 4.487,-3.233 6.901,-1.843c2.415,1.39 3.243,4.472 1.849,6.879c-1.394,2.407 -4.487,3.233 -6.901,1.843c-2.415,-1.39 -3.243,-4.472 -1.849,-6.879Z" style="fill:#ff7f7f;stroke:#ff7f7f;stroke-width:0.84px;stroke-linecap:butt;stroke-linejoin:miter;stroke-miterlimit:4;"/><path id="ellipse4345" serif:id="ellipse434" d="M28.294,61.763c1.394,-2.407 4.487,-3.233 6.901,-1.843c2.415,1.39 3.243,4.472 1.849,6.879c-1.394,2.407 -4.487,3.233 -6.901,1.843c-2.415,-1.39 -3.243,-4.472 -1.849,-6.879Z" style="fill:#ff7f7f;stroke:#ff7f7f;stroke-width:0.84px;stroke-linecap:butt;stroke-linejoin:miter;stroke-miterlimit:4;"/><path id="ellipse435" d="M3.246,125.926c1.394,-2.407 4.487,-3.233 6.901,-1.843c2.415,1.39 3.243,4.472 1.849,6.879c-1.394,2.407 -4.487,3.233 -6.901,1.843c-2.415,-1.39 -3.243,-4.472 -1.849,-6.879Z" style="fill:#ff7f7f;stroke:#ff7f7f;stroke-width:0.84px;stroke-linecap:butt;stroke-linejoin:miter;stroke-miterlimit:4;"/><path id="ellipse4346" serif:id="ellipse434" d="M45.532,41.304c1.394,-2.407 4.487,-3.233 6.901,-1.843c2.415,1.39 3.243,4.472 1.849,6.879c-1.394,2.407 -4.487,3.233 -6.901,1.843c-2.415,-1.39 -3.243,-4.472 -1.849,-6.879Z" style="fill:#ff7f7f;stroke:#ff7f7f;stroke-width:0.84px;stroke-linecap:butt;stroke-linejoin:miter;stroke-miterlimit:4;"/><path id="ellipse4347" serif:id="ellipse434" d="M75.625,40.942c1.394,-2.407 4.487,-3.233 6.901,-1.843c2.415,1.39 3.243,4.472 1.849,6.879c-1.394,2.407 -4.487,3.233 -6.901,1.843c-2.415,-1.39 -3.243,-4.472 -1.849,-6.879Z" style="fill:#ff7f7f;stroke:#ff7f7f;stroke-width:0.84px;stroke-linecap:butt;stroke-linejoin:miter;stroke-miterlimit:4;"/><path d="M87.674,11.885l-37.766,0.328l0,62.821" style="fill:none;stroke:#ff8484;stroke-width:5px;"/><path id="ellipse4348" serif:id="ellipse434" d="M46.206,9.215c1.394,-2.407 4.487,-3.233 6.901,-1.843c2.415,1.39 3.243,4.472 1.849,6.879c-1.394,2.407 -4.487,3.233 -6.901,1.843c-2.415,-1.39 -3.243,-4.472 -1.849,-6.879Z" style="fill:#ff7f7f;stroke:#ff7f7f;stroke-width:0.84px;stroke-linecap:butt;stroke-linejoin:miter;stroke-miterlimit:4;"/><path id="ellipse4349" serif:id="ellipse434" d="M83.298,9.215c1.394,-2.407 4.487,-3.233 6.901,-1.843c2.415,1.39 3.243,4.472 1.849,6.879c-1.394,2.407 -4.487,3.233 -6.901,1.843c-2.415,-1.39 -3.243,-4.472 -1.849,-6.879Z" style="fill:#ff7f7f;stroke:#ff7f7f;stroke-width:0.84px;stroke-linecap:butt;stroke-linejoin:miter;stroke-miterlimit:4;"/><path id="ellipse4351" serif:id="ellipse435" d="M45.646,72.352c1.394,-2.407 4.487,-3.233 6.901,-1.843c2.415,1.39 3.243,4.472 1.849,6.879c-1.394,2.407 -4.487,3.233 -6.901,1.843c-2.415,-1.39 -3.243,-4.472 -1.849,-6.879Z" style="fill:#ff7f7f;stroke:#ff7f7f;stroke-width:0.84px;stroke-linecap:butt;stroke-linejoin:miter;stroke-miterlimit:4;"/><path d="M49.908,43.46l30.093,0" style="fill:none;stroke:#ff8484;stroke-width:5px;"/><path id="ellipse43410" serif:id="ellipse434" d="M110.546,51.199c1.394,-2.407 4.487,-3.233 6.901,-1.843c2.415,1.39 3.243,4.472 1.849,6.879c-1.394,2.407 -4.487,3.233 -6.901,1.843c-2.415,-1.39 -3.243,-4.472 -1.849,-6.879Z" style="fill:#696969;stroke:#696969;stroke-width:0.84px;stroke-linecap:butt;stroke-linejoin:miter;stroke-miterlimit:4;"/><path id="ellipse43411" serif:id="ellipse434" d="M130.064,51.199c1.394,-2.407 4.487,-3.233 6.901,-1.843c2.415,1.39 3.243,4.472 1.849,6.879c-1.394,2.407 -4.487,3.233 -6.901,1.843c-2.415,-1.39 -3.243,-4.472 -1.849,-6.879Z" style="fill:#696969;stroke:#696969;stroke-width:0.84px;stroke-linecap:butt;stroke-linejoin:miter;stroke-miterlimit:4;"/><path id="ellipse43412" serif:id="ellipse434" d="M90.543,21.766c1.394,-2.407 4.487,-3.233 6.901,-1.843c2.415,1.39 3.243,4.472 1.849,6.879c-1.394,2.407 -4.487,3.233 -6.901,1.843c-2.415,-1.39 -3.243,-4.472 -1.849,-6.879Z" style="fill:#696969;stroke:#696969;stroke-width:0.84px;stroke-linecap:butt;stroke-linejoin:miter;stroke-miterlimit:4;"/><path id="ellipse43413" serif:id="ellipse434" d="M130.064,21.766c1.394,-2.407 4.487,-3.233 6.901,-1.843c2.415,1.39 3.243,4.472 1.849,6.879c-1.394,2.407 -4.487,3.233 -6.901,1.843c-2.415,-1.39 -3.243,-4.472 -1.849,-6.879Z" style="fill:#696969;stroke:#696969;stroke-width:0.84px;stroke-linecap:butt;stroke-linejoin:miter;stroke-miterlimit:4;"/><path id="ellipse4352" serif:id="ellipse435" d="M75.743,41.128c1.394,-2.407 4.487,-3.233 6.901,-1.843c2.415,1.39 3.243,4.472 1.849,6.879c-1.394,2.407 -4.487,3.233 -6.901,1.843c-2.415,-1.39 -3.243,-4.472 -1.849,-6.879Z" style="fill:#696969;stroke:#696969;stroke-width:0.84px;stroke-linecap:butt;stroke-linejoin:miter;stroke-miterlimit:4;"/><path id="ellipse4353" serif:id="ellipse435" d="M80.439,67.997c1.394,-2.407 4.487,-3.233 6.901,-1.843c2.415,1.39 3.243,4.472 1.849,6.879c-1.394,2.407 -4.487,3.233 -6.901,1.843c-2.415,-1.39 -3.243,-4.472 -1.849,-6.879Z" style="fill:#696969;stroke:#696969;stroke-width:0.84px;stroke-linecap:butt;stroke-linejoin:miter;stroke-miterlimit:4;"/><path id="ellipse4354" serif:id="ellipse435" d="M103.123,82.087c1.394,-2.407 4.487,-3.233 6.901,-1.843c2.415,1.39 3.243,4.472 1.849,6.879c-1.394,2.407 -4.487,3.233 -6.901,1.843c-2.415,-1.39 -3.243,-4.472 -1.849,-6.879Z" style="fill:#696969;stroke:#696969;stroke-width:0.84px;stroke-linecap:butt;stroke-linejoin:miter;stroke-miterlimit:4;"/><path id="ellipse4355" serif:id="ellipse435" d="M130.064,77.051c1.394,-2.407 4.487,-3.233 6.901,-1.843c2.415,1.39 3.243,4.472 1.849,6.879c-1.394,2.407 -4.487,3.233 -6.901,1.843c-2.415,-1.39 -3.243,-4.472 -1.849,-6.879Z" style="fill:#696969;stroke:#696969;stroke-width:0.84px;stroke-linecap:butt;stroke-linejoin:miter;stroke-miterlimit:4;"/><path d="M114.921,53.717l19.518,0l-0,25.852c0,0 -18.572,6.626 -26.941,5.036c-8.314,-1.58 -18.681,-7.641 -23.272,-14.576c-4.303,-6.5 -6.082,-19.332 -4.274,-27.033c1.808,-7.7 8.753,-16.928 15.123,-19.169c9.081,-3.195 25.256,-6.39 39.364,0" style="fill:none;stroke:#696969;stroke-width:5px;"/></g></svg>